<svg width="21" height="21" viewBox="0 0 21 21" fill="none" xmlns="http://www.w3.org/2000/svg">
<path d="M20.2516 18.8525L13.6576 12.2586C14.6809 10.9357 15.2344 9.31836 15.2344 7.61719C15.2344 5.58086 14.4396 3.67148 13.0025 2.23184C11.5654 0.792187 9.65098 0 7.61719 0C5.5834 0 3.66895 0.794726 2.23184 2.23184C0.792187 3.66895 0 5.58086 0 7.61719C0 9.65098 0.794726 11.5654 2.23184 13.0025C3.66895 14.4422 5.58086 15.2344 7.61719 15.2344C9.31836 15.2344 10.9332 14.6809 12.2561 13.6602L18.85 20.2516C18.8693 20.2709 18.8923 20.2863 18.9176 20.2967C18.9428 20.3072 18.9699 20.3126 18.9973 20.3126C19.0246 20.3126 19.0517 20.3072 19.077 20.2967C19.1022 20.2863 19.1252 20.2709 19.1445 20.2516L20.2516 19.1471C20.2709 19.1277 20.2863 19.1048 20.2967 19.0795C20.3072 19.0542 20.3126 19.0272 20.3126 18.9998C20.3126 18.9725 20.3072 18.9454 20.2967 18.9201C20.2863 18.8948 20.2709 18.8719 20.2516 18.8525ZM11.6391 11.6391C10.5625 12.7131 9.13555 13.3047 7.61719 13.3047C6.09883 13.3047 4.67188 12.7131 3.59531 11.6391C2.52129 10.5625 1.92969 9.13555 1.92969 7.61719C1.92969 6.09883 2.52129 4.66934 3.59531 3.59531C4.67188 2.52129 6.09883 1.92969 7.61719 1.92969C9.13555 1.92969 10.565 2.51875 11.6391 3.59531C12.7131 4.67188 13.3047 6.09883 13.3047 7.61719C13.3047 9.13555 12.7131 10.565 11.6391 11.6391Z" fill="#707B99"/>
</svg>
